<?xml version="1.0" encoding="UTF-8"?>
<svg id="Layer_2" data-name="Layer 2" xmlns="http://www.w3.org/2000/svg" viewBox="0 0 162.3 200">
  <defs>
    <style>
      .cls-1 {
        fill: #ff931e;
      }

      .cls-2 {
        fill: #f15a24;
      }
    </style>
  </defs>
  <g id="Layer_2-2" data-name="Layer 2">
    <g>
      <path class="cls-2" d="M81.3,200c56,0,81-45,81-72s-1-38-29-74-19-24-28-37S93.3,0,85.3,0s-16,11-20,16-17,21-17,21l-9-9c-7-7-15-8-20-4s-7,8-9,21S4.3,86,.3,120s32,80,81,80Z"/>
      <path class="cls-1" d="M80.56,170.23h0c30.81,0,47.5-36.09,27.53-59.56l-19.57-23.01c-4.29-5.05-12.1-5.01-16.35.08l-19.36,23.19c-19.65,23.54-2.91,59.31,27.75,59.31Z"/>
    </g>
  </g>
</svg>