<?xml version="1.0" encoding="UTF-8"?>
<svg id="Layer_2" data-name="Layer 2" xmlns="http://www.w3.org/2000/svg" viewBox="0 0 132.15 165.19">
  <defs>
    <style>
      .cls-1 {
        fill: #29abe2;
      }
    </style>
  </defs>
  <g id="Layer_2-2" data-name="Layer 2">
    <g id="Layer_2-2" data-name="Layer 2-2">
      <path class="cls-1" d="M115.74,52.55c-10.94-16.17-27.5-33.69-49.66-52.55C43.91,18.86,27.36,36.38,16.42,52.55,5.47,68.73,0,83.7,0,97.46c0,19.27,6.3,35.38,18.89,48.32,12.6,12.94,28.32,19.41,47.18,19.41h0c18.86,0,34.59-6.47,47.18-19.41,12.6-12.94,18.89-29.04,18.89-48.32,0-13.77-5.47-28.74-16.42-44.91ZM72.58,138.45c-1.17,1.17-2.58,1.82-4.23,1.96h0c-8.81.55-17.55-1.86-26.23-7.23s-14.18-14.32-16.52-26.84c-.41-1.93,0-3.61,1.24-5.06,1.24-1.44,2.82-2.17,4.75-2.17,1.51,0,2.86.48,4.03,1.45,1.17.96,1.89,2.2,2.17,3.72,1.65,9.22,5.64,15.59,11.98,19.1,6.33,3.51,12.32,5.06,17.97,4.65,1.93-.14,3.51.38,4.75,1.55,1.24,1.17,1.86,2.72,1.86,4.65,0,1.65-.58,3.06-1.75,4.23h0Z"/>
    </g>
  </g>
</svg>