<?xml version="1.0" encoding="UTF-8"?>
<svg id="Layer_2" data-name="Layer 2" xmlns="http://www.w3.org/2000/svg" viewBox="0 0 244.06 244.87">
  <defs>
    <style>
      .cls-1 {
        fill: #424242;
      }

      .cls-2 {
        fill: #b0b0b0;
      }

      .cls-3 {
        fill: #0f0f0f;
      }

      .cls-4 {
        fill: #fafafa;
      }
    </style>
  </defs>
  <g id="Layer_2-2" data-name="Layer 2">
    <g id="object">
      <path class="cls-1" d="M122.44,233.79c-61.85,0-112.17-50.32-112.17-112.17S60.59,9.46,122.44,9.46s112.17,50.32,112.17,112.17-50.32,112.17-112.17,112.17h0ZM122.44,11.02C61.45,11.02,11.83,60.64,11.83,121.62s49.62,110.61,110.61,110.61,110.61-49.62,110.61-110.61S183.42,11.02,122.44,11.02Z"/>
      <path class="cls-1" d="M122.44,243.25C55.37,243.25.81,188.69.81,121.62S55.37,0,122.44,0s121.62,54.56,121.62,121.62-54.56,121.62-121.62,121.62h0ZM122.44,1.57c-66.2,0-120.06,53.85-120.06,120.05s53.86,120.06,120.06,120.06,120.06-53.86,120.06-120.06S188.64,1.57,122.44,1.57Z"/>
      <path class="cls-1" d="M122.44,183.82c-34.3,0-62.19-27.9-62.19-62.19s27.9-62.19,62.19-62.19,62.19,27.9,62.19,62.19-27.89,62.19-62.19,62.19ZM122.44,61c-33.43,0-60.63,27.2-60.63,60.63s27.2,60.63,60.63,60.63,60.63-27.2,60.63-60.63-27.2-60.63-60.63-60.63Z"/>
      <path class="cls-1" d="M122.44,189.03c-37.17,0-67.41-30.24-67.41-67.41s30.24-67.4,67.41-67.4,67.41,30.24,67.41,67.4-30.24,67.41-67.41,67.41ZM122.44,55.78c-36.31,0-65.84,29.54-65.84,65.84s29.54,65.84,65.84,65.84,65.84-29.54,65.84-65.84-29.54-65.84-65.84-65.84Z"/>
      <path class="cls-4" d="M171.33,71.04l-33.21,50.58,33.57,50.96-50.95-33.56-49.34,31.95,31.95-49.35-30.11-47.49,47.5,30.11s50.59-33.2,50.59-33.2Z"/>
      <path class="cls-2" d="M172.6,173.49l-51.86-34.16-50.23,32.52.66-1.02,31.87-49.21-30.65-48.33,48.34,30.64,51.51-33.8-.69,1.05-33.12,50.45,34.17,51.86ZM120.74,138.71l.14.09,49.9,32.86-32.97-50.04.09-.14,32.52-49.54-49.69,32.61-.14-.09-46.52-29.49,29.58,46.65-.09.14-31.3,48.32,48.47-31.38h.01Z"/>
      <path class="cls-3" d="M171.33,71.04l-48.89,50.58-1.7-17.38s50.59-33.2,50.59-33.2Z"/>
      <path class="cls-2" d="M122.23,122.21l-1.77-18.1.13-.09,52.56-34.49s-50.92,52.68-50.92,52.68ZM121.01,104.38l1.63,16.66,46.88-48.5s-48.51,31.84-48.51,31.84Z"/>
      <path class="cls-3" d="M120.74,139.02l1.7-17.4-51.04,49.35s49.34-31.95,49.34-31.95Z"/>
      <path class="cls-2" d="M71.54,171.19l-.32-.4,51.55-49.84-1.78,18.23-.1.07-49.35,31.95h0ZM122.11,122.3l-48.61,46.99,46.99-30.43,1.62-16.56h0Z"/>
      <path class="cls-3" d="M171.69,172.58l-49.25-50.96h15.68l33.57,50.96Z"/>
      <path class="cls-2" d="M171.5,172.76l-49.68-51.39h16.44l.08.12,33.56,50.95-.41.33h.01ZM123.05,121.89l46.88,48.5-31.95-48.5h-14.93Z"/>
      <path class="cls-3" d="M73.24,74.13l49.2,47.49h-19.09l-30.11-47.49Z"/>
      <path class="cls-2" d="M123.08,121.89h-19.87l-.08-.12-31.28-49.33,51.24,49.46h0ZM103.5,121.37h18.3l-47.16-45.53,28.87,45.53h-.01Z"/>
      <path class="cls-4" d="M120.74,2.15l13.67,105.8,107.5,13.68-107.5,13.68-13.67,107.49-13.69-107.49L2.02,121.63l105.03-13.68S120.74,2.15,120.74,2.15Z"/>
      <path class="cls-2" d="M120.74,244.87l-13.92-109.32L0,121.63l106.82-13.91L120.74.12l13.91,107.59,109.33,13.91-109.33,13.92-13.91,109.32h0ZM4.04,121.63l103.24,13.45.03.2,13.43,105.46,13.44-105.66,105.67-13.45-105.67-13.45-.03-.2L120.74,4.19l-13.46,103.99-.19.02L4.04,121.63Z"/>
      <path class="cls-3" d="M120.74,2.15l1.34,118.14-15.03-12.34S120.74,2.15,120.74,2.15Z"/>
      <path class="cls-2" d="M122.35,120.85l-15.57-12.79.02-.14L120.48,2.12l.52.03,1.34,118.7h.01ZM107.33,107.84l14.49,11.9-1.29-113.86-13.19,101.96h0Z"/>
      <path class="cls-3" d="M134.41,135.31l-12.33-15.02-1.34,122.51,13.67-107.49Z"/>
      <path class="cls-2" d="M121,242.84l-.52-.04,1.35-123.23,12.86,15.66v.11l-13.69,107.49h0ZM122.33,121.01l-1.28,117.29,13.09-102.91s-11.81-14.38-11.81-14.38Z"/>
      <path class="cls-3" d="M241.91,121.63l-119.83-1.34,12.33-12.34,107.5,13.68Z"/>
      <path class="cls-2" d="M241.91,121.89l-120.45-1.34.44-.44,12.43-12.43.13.02,107.5,13.68-.04.52h-.01ZM122.7,120.04l114.7,1.28-102.89-13.09s-11.81,11.81-11.81,11.81Z"/>
      <path class="cls-3" d="M2.02,121.63l120.06-1.34-15.03,15.02L2.02,121.63Z"/>
      <path class="cls-2" d="M107.15,135.58l-.13-.02L1.98,121.89l.03-.52,120.7-1.34-.45.45-15.12,15.11h.01ZM5.72,121.85l101.24,13.19,14.48-14.48s-115.72,1.29-115.72,1.29Z"/>
      <path class="cls-1" d="M169.24,71.86l30.21-30.26,1.11,1.11-30.21,30.26-1.11-1.11Z"/>
      <path class="cls-1" d="M41.82,198.09l28.98-27.75,1.08,1.13-28.98,27.75-1.08-1.13Z"/>
      <path class="cls-1" d="M169.24,171.18l1.07-1.15,31.58,29.17-1.07,1.15-31.58-29.17Z"/>
      <path class="cls-1" d="M43.96,42.42l1.15-1.06,30.44,33.05-1.15,1.06-30.44-33.05Z"/>
    </g>
  </g>
</svg>