<svg id="Layer_2" data-name="Layer 2" xmlns="http://www.w3.org/2000/svg" viewBox="0 0 244.06 244.87">
    <defs>
        <style>
            .cls-1{fill:#424242}.cls-2{fill:#0f0f0f}.cls-3{fill:#b0b0b0}.cls-4{fill:#fafafa}
        </style>
    </defs>
    <g id="object">
        <path fill="#424242" d="M122.44 233.79c-61.85 0-112.17-50.32-112.17-112.17S60.59 9.46 122.44 9.46s112.17 50.32 112.17 112.17S184.29 233.8 122.44 233.8Zm0-222.77c-60.99 0-110.61 49.62-110.61 110.6s49.62 110.61 110.61 110.61 110.61-49.62 110.61-110.61-49.63-110.6-110.61-110.6Z"/>
        <path fill="#424242" d="M122.44 243.25C55.37 243.25.81 188.69.81 121.62S55.37 0 122.44 0s121.62 54.56 121.62 121.62-54.56 121.62-121.62 121.62Zm0-241.68C56.24 1.57 2.38 55.42 2.38 121.62s53.86 120.06 120.06 120.06S242.5 187.82 242.5 121.62 188.64 1.57 122.44 1.57Z"/>
        <path fill="#424242" d="M122.44 183.82c-34.3 0-62.19-27.9-62.19-62.19s27.9-62.19 62.19-62.19 62.19 27.9 62.19 62.19-27.89 62.19-62.19 62.19Zm0-122.82c-33.43 0-60.63 27.2-60.63 60.63s27.2 60.63 60.63 60.63 60.63-27.2 60.63-60.63S155.87 61 122.44 61Z"/>
        <path fill="#424242" d="M122.44 189.03c-37.17 0-67.41-30.24-67.41-67.41s30.24-67.4 67.41-67.4 67.41 30.24 67.41 67.4-30.24 67.41-67.41 67.41Zm0-133.25c-36.31 0-65.84 29.54-65.84 65.84s29.54 65.84 65.84 65.84 65.84-29.54 65.84-65.84-29.54-65.84-65.84-65.84Z"/>
        <path fill="#fafafa" d="m171.33 71.04-33.21 50.58 33.57 50.96-50.95-33.56-49.34 31.95 31.95-49.35-30.11-47.49 47.5 30.11 50.59-33.2z"/>
        <path fill="#b0b0b0" d="m172.6 173.49-51.86-34.16-50.23 32.52.66-1.02 31.87-49.21-30.65-48.33 48.34 30.64 51.51-33.8-.69 1.05-33.12 50.45 34.17 51.86Zm-51.86-34.78.14.09 49.9 32.86-32.97-50.04.09-.14 32.52-49.54-49.69 32.61-.14-.09-46.52-29.49 29.58 46.65-.09.14-31.3 48.32 48.47-31.38Z"/>
        <path fill="#0f0f0f" d="m171.33 71.04-48.89 50.58-1.7-17.38 50.59-33.2z"/>
        <path fill="#b0b0b0" d="m122.23 122.21-1.77-18.1.13-.09 52.56-34.49-50.92 52.68Zm-1.22-17.83 1.63 16.66 46.88-48.5-48.51 31.84Z"/>
        <path fill="#0f0f0f" d="m120.74 139.02 1.7-17.4-51.04 49.35 49.34-31.95z"/>
        <path fill="#b0b0b0" d="m71.54 171.19-.32-.4 51.55-49.84-1.78 18.23-.1.07-49.35 31.95Zm50.57-48.89L73.5 169.29l46.99-30.43 1.62-16.56Z"/>
        <path fill="#0f0f0f" d="m171.69 172.58-49.25-50.96h15.68l33.57 50.96z"/>
        <path fill="#b0b0b0" d="m171.5 172.76-49.68-51.39h16.44l.08.12 33.56 50.95-.41.33Zm-48.45-50.87 46.88 48.5-31.95-48.5h-14.93Z"/>
        <path fill="#0f0f0f" d="m73.24 74.13 49.2 47.49h-19.09L73.24 74.13z"/>
        <path fill="#b0b0b0" d="M123.08 121.89h-19.87l-.08-.12-31.28-49.33 51.24 49.46Zm-19.58-.52h18.3L74.64 75.84l28.87 45.53Z"/>
        <path fill="#fafafa" d="m120.74 2.15 13.67 105.8 107.5 13.68-107.5 13.68-13.67 107.49-13.69-107.49L2.02 121.63l105.03-13.68 13.69-105.8z"/>
        <path fill="#b0b0b0" d="m120.74 244.87-13.92-109.32L0 121.63l106.82-13.91L120.74.12l13.91 107.59 109.33 13.91-109.33 13.92-13.91 109.32ZM4.04 121.63l103.24 13.45.03.2 13.43 105.46 13.44-105.66 105.67-13.45-105.67-13.45-.03-.2L120.74 4.19l-13.46 103.99-.19.02L4.04 121.63Z"/>
        <path fill="#0f0f0f" d="m120.74 2.15 1.34 118.14-15.03-12.34 13.69-105.8z"/>
        <path fill="#b0b0b0" d="m122.35 120.85-15.57-12.79.02-.14 13.68-105.8.52.03 1.34 118.7Zm-15.02-13.01 14.49 11.9-1.29-113.86-13.19 101.96Z"/>
        <path fill="#0f0f0f" d="m134.41 135.31-12.33-15.02-1.34 122.51 13.67-107.49z"/>
        <path fill="#b0b0b0" d="m121 242.84-.52-.04 1.35-123.23 12.86 15.66v.11L121 242.83Zm1.33-121.83-1.28 117.29 13.09-102.91-11.81-14.38Z"/>
        <path fill="#0f0f0f" d="m241.91 121.63-119.83-1.34 12.33-12.34 107.5 13.68z"/>
        <path fill="#b0b0b0" d="m241.91 121.89-120.45-1.34.44-.44 12.43-12.43.13.02 107.5 13.68-.04.52Zm-119.21-1.85 114.7 1.28-102.89-13.09-11.81 11.81Z"/>
        <path fill="#0f0f0f" d="m2.02 121.63 120.06-1.34-15.03 15.02L2.02 121.63z"/>
        <path fill="#b0b0b0" d="m107.15 135.58-.13-.02L1.98 121.89l.03-.52 120.7-1.34-.45.45-15.12 15.11ZM5.72 121.85l101.24 13.19 14.48-14.48-115.72 1.29Z"/>
        <path fill="#424242" transform="rotate(-45.05 184.904 57.27)" d="M163.51 56.49h42.76v1.57h-42.76z"/>
        <path fill="#424242" transform="rotate(-43.76 56.84 184.79)" d="M36.79 184.01h40.12v1.56H36.79z"/>
        <path fill="#424242" transform="rotate(-47.27 185.567 185.188)" d="M184.78 163.69h1.57v42.99h-1.57z"/>
        <path fill="#424242" transform="rotate(-42.64 59.768 58.417)" d="M58.97 35.94h1.56v44.93h-1.56z"/>
    </g>
</svg>
